<?xml version="1.0" encoding="UTF-8" standalone="no"?>
<!DOCTYPE svg PUBLIC "-//W3C//DTD SVG 1.1//EN" "http://www.w3.org/Graphics/SVG/1.1/DTD/svg11.dtd">
<svg width="100%" height="100%" viewBox="0 0 15 15" version="1.1" xmlns="http://www.w3.org/2000/svg" xmlns:xlink="http://www.w3.org/1999/xlink" xml:space="preserve" xmlns:serif="http://www.serif.com/" style="fill-rule:evenodd;clip-rule:evenodd;stroke-linejoin:round;stroke-miterlimit:2;">
    <path d="M2.449,11.748C1.482,10.6 0.9,9.118 0.9,7.5C0.9,3.855 3.855,0.9 7.5,0.9C9.118,0.9 10.6,1.482 11.748,2.449L11.109,3.088C10.583,2.657 9.978,2.318 9.319,2.096C9.736,2.632 10.078,3.224 10.346,3.851L9.427,4.77C8.929,4.711 8.417,4.675 7.9,4.663L7.9,6.297L7.1,7.097L7.1,4.663C6.415,4.679 5.739,4.737 5.095,4.835C4.871,5.56 4.741,6.326 4.708,7.1L7.097,7.1L6.297,7.9L4.708,7.9C4.729,8.378 4.786,8.853 4.88,9.317L3.773,10.424C3.271,10.299 2.795,10.146 2.359,9.965C2.557,10.376 2.802,10.76 3.088,11.109L2.449,11.748ZM12.551,3.252C13.518,4.4 14.1,5.882 14.1,7.5C14.1,11.145 11.145,14.1 7.5,14.1C5.882,14.1 4.4,13.518 3.252,12.551L3.891,11.912C4.425,12.35 5.041,12.692 5.711,12.914C5.295,12.364 4.955,11.756 4.691,11.112L5.746,10.057C6.189,10.105 6.642,10.134 7.1,10.145L7.1,8.703L7.9,7.903L7.9,10.145C8.629,10.128 9.349,10.064 10.031,9.953C10.223,9.292 10.335,8.599 10.366,7.9L7.903,7.9L8.703,7.1L10.366,7.1C10.344,6.602 10.281,6.108 10.177,5.626L10.757,5.046C10.935,5.715 11.038,6.406 11.067,7.1L13.186,7.1C13.154,6.632 13.065,6.18 12.926,5.749C12.33,5.433 11.603,5.183 10.8,5.003L11.38,4.423C11.779,4.528 12.161,4.651 12.517,4.793C12.344,4.473 12.141,4.171 11.912,3.891L12.551,3.252ZM4.275,9.822C4.122,9.194 4.034,8.548 4.008,7.9L1.814,7.9C1.841,8.286 1.906,8.661 2.005,9.022C2.632,9.366 3.411,9.634 4.275,9.822ZM4.566,4.214C4.844,3.448 5.225,2.727 5.711,2.086C4.322,2.545 3.169,3.524 2.483,4.793C3.112,4.543 3.818,4.351 4.566,4.214ZM7.1,3.963L7.1,1.814C7.018,1.819 6.937,1.827 6.857,1.836C6.22,2.47 5.721,3.241 5.365,4.09C5.933,4.018 6.516,3.976 7.1,3.963ZM9.69,4.098C9.322,3.246 8.807,2.472 8.146,1.836C8.065,1.827 7.982,1.82 7.9,1.814L7.9,3.963C8.503,3.976 9.105,4.021 9.69,4.098ZM2.074,5.749C1.935,6.18 1.846,6.632 1.814,7.1L4.008,7.1C4.036,6.382 4.142,5.666 4.327,4.975C3.474,5.157 2.702,5.416 2.074,5.749ZM12.995,9.022C13.094,8.661 13.159,8.286 13.186,7.9L11.067,7.9C11.04,8.543 10.95,9.184 10.795,9.806C11.631,9.619 12.385,9.357 12.995,9.022ZM10.57,10.568C10.279,11.411 9.863,12.205 9.319,12.904C10.782,12.411 11.98,11.341 12.641,9.965C12.019,10.223 11.316,10.424 10.57,10.568ZM5.284,10.707C5.644,11.636 6.169,12.48 6.857,13.164C6.937,13.173 7.018,13.181 7.1,13.186L7.1,10.845C6.488,10.832 5.877,10.786 5.284,10.707ZM7.9,10.845L7.9,13.186C7.982,13.18 8.065,13.173 8.146,13.164C8.859,12.478 9.403,11.631 9.775,10.699C9.163,10.783 8.532,10.831 7.9,10.845Z"/>
    <g transform="matrix(0.871541,-0.871541,0.707107,0.707107,-4.4038,8.79713)">
        <rect x="1.5" y="7.1" width="12" height="0.8"/>
    </g>
</svg>
