<?xml version="1.0" encoding="UTF-8" standalone="no"?>
<!DOCTYPE svg PUBLIC "-//W3C//DTD SVG 1.1//EN" "http://www.w3.org/Graphics/SVG/1.1/DTD/svg11.dtd">
<svg width="100%" height="100%" viewBox="0 0 809 534" version="1.1" xmlns="http://www.w3.org/2000/svg" xmlns:xlink="http://www.w3.org/1999/xlink" xml:space="preserve" xmlns:serif="http://www.serif.com/" style="fill-rule:evenodd;clip-rule:evenodd;stroke-linejoin:round;stroke-miterlimit:2;">
    <g transform="matrix(4.16667,0,0,4.16667,0,0)">
        <path d="M23.202,81.174L0.025,81.293C0.025,81.293 -0.504,85.75 3.232,85.75L27.093,85.616C27.676,85.613 28.168,85.181 28.248,84.604L33.386,62.332C33.573,60.975 35.538,60.986 35.71,62.345L45.364,126.975C45.53,128.292 47.413,128.361 47.676,127.06L55.903,86.242C56.013,85.696 56.492,85.303 57.049,85.302L190.927,85.247C193.915,85.247 193.516,80.784 193.516,80.784L53.393,80.86C52.836,80.861 52.357,81.254 52.247,81.8L48.685,99.466C48.422,100.767 46.539,100.698 46.373,99.381L35.905,28.313C35.733,26.954 33.768,26.943 33.581,28.3L24.357,80.162C24.277,80.74 23.785,81.171 23.202,81.174Z" style="fill:white;fill-rule:nonzero;"/>
        <path d="M82.279,69.779C82.199,70.05 82.095,70.27 81.968,70.438C81.84,70.606 81.632,70.734 81.345,70.821C81.057,70.909 80.665,70.965 80.171,70.989C79.675,71.013 79.028,71.025 78.23,71.025C77.591,71.025 77.044,71.021 76.589,71.013C76.134,71.005 75.746,70.984 75.427,70.953C75.106,70.921 74.848,70.873 74.647,70.809C74.448,70.745 74.28,70.665 74.145,70.569C74.009,70.474 73.905,70.358 73.833,70.222C73.762,70.087 73.693,69.915 73.63,69.707L64.405,42.225C64.214,41.65 64.098,41.195 64.058,40.859C64.018,40.524 64.098,40.273 64.297,40.105C64.497,39.937 64.836,39.834 65.315,39.794C65.795,39.754 66.466,39.734 67.328,39.734C68.063,39.734 68.638,39.75 69.054,39.781C69.469,39.814 69.788,39.869 70.012,39.949C70.235,40.029 70.391,40.149 70.479,40.309C70.566,40.468 70.65,40.668 70.73,40.907L78.277,64.819L78.302,64.819L85.705,41.027C85.769,40.756 85.849,40.536 85.944,40.368C86.041,40.201 86.204,40.069 86.436,39.973C86.667,39.877 86.999,39.814 87.431,39.781C87.861,39.75 88.452,39.734 89.203,39.734C89.938,39.734 90.509,39.757 90.916,39.805C91.324,39.853 91.603,39.969 91.755,40.153C91.906,40.337 91.954,40.596 91.898,40.931C91.843,41.267 91.719,41.714 91.527,42.273L82.279,69.779Z" style="fill:white;fill-rule:nonzero;"/>
        <path d="M101.542,70.067C101.542,70.226 101.495,70.366 101.399,70.485C101.303,70.606 101.139,70.705 100.908,70.785C100.676,70.865 100.369,70.925 99.984,70.965C99.602,71.005 99.114,71.025 98.523,71.025C97.932,71.025 97.445,71.005 97.062,70.965C96.679,70.925 96.37,70.865 96.14,70.785C95.907,70.705 95.744,70.606 95.648,70.485C95.552,70.366 95.504,70.226 95.504,70.067L95.504,48.742C95.504,48.583 95.552,48.443 95.648,48.323C95.744,48.203 95.907,48.1 96.14,48.011C96.37,47.924 96.679,47.856 97.062,47.808C97.445,47.76 97.932,47.736 98.523,47.736C99.114,47.736 99.602,47.76 99.984,47.808C100.369,47.856 100.676,47.924 100.908,48.011C101.139,48.1 101.303,48.203 101.399,48.323C101.495,48.443 101.542,48.583 101.542,48.742L101.542,70.067ZM101.998,41.459C101.998,42.672 101.749,43.511 101.255,43.974C100.759,44.438 99.841,44.669 98.499,44.669C97.142,44.669 96.227,44.445 95.756,43.998C95.284,43.551 95.049,42.745 95.049,41.578C95.049,40.365 95.292,39.522 95.78,39.05C96.267,38.58 97.189,38.344 98.547,38.344C99.889,38.344 100.8,38.571 101.279,39.026C101.758,39.482 101.998,40.293 101.998,41.459Z" style="fill:white;fill-rule:nonzero;"/>
        <path d="M127.227,48.671C127.227,48.751 127.223,48.846 127.215,48.958C127.208,49.07 127.191,49.194 127.167,49.329C127.143,49.465 127.111,49.621 127.072,49.797C127.032,49.972 126.98,50.172 126.916,50.396L120.495,69.731C120.415,70.003 120.307,70.222 120.171,70.39C120.036,70.558 119.812,70.689 119.5,70.785C119.189,70.881 118.765,70.944 118.231,70.977C117.695,71.008 116.997,71.025 116.134,71.025C115.288,71.025 114.596,71.005 114.062,70.965C113.526,70.925 113.107,70.857 112.803,70.761C112.5,70.665 112.281,70.533 112.145,70.366C112.009,70.198 111.901,69.986 111.822,69.731L105.4,50.396C105.304,50.076 105.228,49.789 105.172,49.533C105.117,49.277 105.084,49.094 105.077,48.982C105.069,48.87 105.065,48.766 105.065,48.671C105.065,48.511 105.109,48.371 105.197,48.251C105.284,48.131 105.44,48.032 105.664,47.952C105.887,47.872 106.195,47.816 106.586,47.784C106.977,47.752 107.468,47.736 108.06,47.736C108.714,47.736 109.242,47.756 109.641,47.796C110.041,47.836 110.356,47.892 110.587,47.963C110.819,48.035 110.983,48.14 111.079,48.275C111.174,48.411 111.254,48.575 111.318,48.766L116.182,64.46L116.326,65.059L116.469,64.46L121.261,48.766C121.309,48.575 121.385,48.411 121.489,48.275C121.592,48.14 121.756,48.035 121.98,47.963C122.204,47.892 122.503,47.836 122.878,47.796C123.253,47.756 123.745,47.736 124.352,47.736C124.943,47.736 125.426,47.752 125.801,47.784C126.177,47.816 126.468,47.872 126.676,47.952C126.883,48.032 127.028,48.131 127.108,48.251C127.187,48.371 127.227,48.511 127.227,48.671Z" style="fill:white;fill-rule:nonzero;"/>
        <path d="M144.214,57.032C144.263,55.339 143.923,54.01 143.197,53.043C142.469,52.077 141.347,51.593 139.831,51.593C139.064,51.593 138.396,51.737 137.83,52.025C137.262,52.312 136.791,52.7 136.416,53.187C136.041,53.674 135.753,54.249 135.553,54.912C135.353,55.575 135.238,56.282 135.206,57.032L144.214,57.032ZM150.061,58.757C150.061,59.492 149.897,60.035 149.57,60.387C149.243,60.738 148.791,60.914 148.216,60.914L135.206,60.914C135.206,61.824 135.314,62.651 135.53,63.394C135.745,64.136 136.088,64.768 136.56,65.286C137.031,65.806 137.638,66.201 138.38,66.472C139.124,66.744 140.013,66.88 141.052,66.88C142.106,66.88 143.033,66.804 143.832,66.652C144.63,66.501 145.321,66.333 145.904,66.149C146.487,65.965 146.97,65.798 147.353,65.646C147.737,65.494 148.048,65.418 148.288,65.418C148.432,65.418 148.551,65.446 148.647,65.502C148.743,65.558 148.823,65.658 148.887,65.801C148.951,65.945 148.995,66.149 149.019,66.413C149.042,66.676 149.054,67.008 149.054,67.407C149.054,67.758 149.046,68.058 149.031,68.305C149.014,68.553 148.991,68.765 148.958,68.94C148.926,69.116 148.878,69.264 148.815,69.383C148.751,69.504 148.667,69.619 148.563,69.731C148.459,69.843 148.176,69.994 147.713,70.186C147.249,70.378 146.659,70.566 145.94,70.749C145.221,70.933 144.398,71.092 143.472,71.229C142.545,71.364 141.555,71.432 140.501,71.432C138.6,71.432 136.935,71.193 135.505,70.713C134.076,70.234 132.882,69.507 131.923,68.533C130.965,67.559 130.25,66.329 129.779,64.843C129.308,63.358 129.073,61.617 129.073,59.62C129.073,57.719 129.32,56.006 129.815,54.481C130.31,52.956 131.029,51.662 131.971,50.599C132.914,49.537 134.06,48.727 135.41,48.167C136.759,47.609 138.281,47.329 139.974,47.329C141.762,47.329 143.292,47.592 144.562,48.119C145.833,48.647 146.874,49.377 147.689,50.312C148.503,51.246 149.103,52.352 149.486,53.63C149.87,54.908 150.061,56.298 150.061,57.799L150.061,58.757Z" style="fill:white;fill-rule:nonzero;"/>
        <path d="M175.434,70.067C175.434,70.226 175.386,70.366 175.291,70.485C175.195,70.606 175.035,70.705 174.811,70.785C174.587,70.865 174.28,70.925 173.888,70.965C173.497,71.005 173.014,71.025 172.439,71.025C171.848,71.025 171.357,71.005 170.965,70.965C170.574,70.925 170.266,70.865 170.043,70.785C169.819,70.705 169.66,70.606 169.564,70.485C169.468,70.366 169.42,70.226 169.42,70.067L169.42,57.871C169.42,56.833 169.344,56.018 169.193,55.427C169.041,54.836 168.821,54.329 168.534,53.905C168.246,53.483 167.874,53.155 167.419,52.923C166.964,52.692 166.433,52.576 165.826,52.576C165.059,52.576 164.285,52.856 163.502,53.414C162.719,53.974 161.905,54.788 161.058,55.859L161.058,70.067C161.058,70.226 161.01,70.366 160.915,70.485C160.819,70.606 160.655,70.705 160.423,70.785C160.192,70.865 159.884,70.925 159.5,70.965C159.118,71.005 158.63,71.025 158.04,71.025C157.448,71.025 156.961,71.005 156.578,70.965C156.195,70.925 155.886,70.865 155.656,70.785C155.423,70.705 155.26,70.606 155.165,70.485C155.068,70.366 155.02,70.226 155.02,70.067L155.02,48.694C155.02,48.535 155.06,48.395 155.14,48.275C155.22,48.155 155.364,48.056 155.572,47.976C155.779,47.896 156.046,47.836 156.374,47.796C156.702,47.756 157.113,47.736 157.608,47.736C158.119,47.736 158.542,47.756 158.877,47.796C159.213,47.836 159.473,47.896 159.657,47.976C159.84,48.056 159.972,48.155 160.052,48.275C160.131,48.395 160.171,48.535 160.171,48.694L160.171,51.162C161.354,49.884 162.556,48.926 163.778,48.287C164.999,47.649 166.273,47.329 167.599,47.329C169.052,47.329 170.279,47.568 171.277,48.047C172.275,48.526 173.082,49.178 173.697,50C174.312,50.823 174.754,51.785 175.027,52.887C175.298,53.989 175.434,55.316 175.434,56.864L175.434,70.067Z" style="fill:white;fill-rule:nonzero;"/>
        <path d="M193.548,67.958C193.548,68.661 193.503,69.2 193.416,69.575C193.329,69.951 193.212,70.214 193.069,70.366C192.925,70.518 192.713,70.653 192.434,70.773C192.154,70.893 191.827,70.997 191.452,71.085C191.076,71.172 190.668,71.24 190.23,71.288C189.791,71.336 189.347,71.36 188.9,71.36C187.702,71.36 186.664,71.208 185.785,70.905C184.907,70.602 184.18,70.134 183.605,69.504C183.03,68.873 182.606,68.078 182.334,67.119C182.063,66.161 181.927,65.027 181.927,63.717L181.927,52.768L179.364,52.768C179.06,52.768 178.829,52.58 178.669,52.205C178.509,51.829 178.429,51.202 178.429,50.324C178.429,49.86 178.45,49.469 178.49,49.15C178.529,48.83 178.589,48.579 178.669,48.395C178.749,48.212 178.849,48.08 178.968,48C179.088,47.92 179.228,47.88 179.388,47.88L181.927,47.88L181.927,43.112C181.927,42.952 181.971,42.809 182.059,42.68C182.147,42.553 182.307,42.445 182.539,42.357C182.77,42.27 183.082,42.206 183.473,42.165C183.864,42.126 184.347,42.106 184.922,42.106C185.513,42.106 186.004,42.126 186.396,42.165C186.788,42.206 187.094,42.27 187.319,42.357C187.542,42.445 187.702,42.553 187.797,42.68C187.893,42.809 187.942,42.952 187.942,43.112L187.942,47.88L192.589,47.88C192.749,47.88 192.889,47.92 193.009,48C193.128,48.08 193.228,48.212 193.308,48.395C193.388,48.579 193.448,48.83 193.488,49.15C193.528,49.469 193.548,49.86 193.548,50.324C193.548,51.202 193.468,51.829 193.308,52.205C193.149,52.58 192.916,52.768 192.614,52.768L187.942,52.768L187.942,62.807C187.942,63.973 188.124,64.847 188.493,65.43C188.86,66.013 189.514,66.305 190.458,66.305C190.777,66.305 191.064,66.277 191.32,66.221C191.575,66.165 191.802,66.101 192.002,66.029C192.202,65.957 192.37,65.894 192.505,65.838C192.641,65.782 192.765,65.754 192.877,65.754C192.973,65.754 193.065,65.782 193.153,65.838C193.241,65.894 193.308,66.005 193.356,66.173C193.404,66.34 193.448,66.568 193.488,66.856C193.528,67.143 193.548,67.511 193.548,67.958Z" style="fill:white;fill-rule:nonzero;"/>
        <path d="M78.457,0.137C76.654,14.475 66.904,35.24 50.122,33.974C45.422,33.619 42.856,31.574 42.856,31.574C42.81,31.612 43.315,27.317 43.866,25.717C45.416,21.215 48.504,17.794 52.685,15.484C58.25,12.41 62.607,14.237 69.726,8.701C63.766,11.921 58.673,10.859 53.291,12.32C42.357,15.289 40.283,27.264 40.003,28.154C40.044,28.061 38.613,24.757 38.915,21.586C39.395,16.54 42.21,11.798 46.366,8.857C50.184,6.155 54.881,4.998 59.474,4.537C61.884,4.295 64.311,4.243 66.732,4.304C68.007,4.336 69.237,4.419 70.508,4.28C73.389,4.006 75.98,2.805 78.153,0.331C78.241,0.231 78.334,0.149 78.457,0.137Z" style="fill:white;fill-rule:nonzero;"/>
        <path d="M89.117,99.739C89.117,99.492 89.073,99.276 88.985,99.09C88.897,98.905 88.765,98.746 88.588,98.613C88.411,98.481 88.188,98.38 87.919,98.309C87.649,98.238 87.307,98.203 86.892,98.203L84.997,98.203L84.097,102.653L86.058,102.653C86.631,102.653 87.108,102.563 87.488,102.382C87.867,102.201 88.179,101.967 88.422,101.68C88.665,101.393 88.842,101.077 88.952,100.733C89.063,100.388 89.117,100.057 89.117,99.739ZM88.534,107.026C88.534,106.461 88.324,106.014 87.905,105.688C87.485,105.361 86.816,105.197 85.898,105.197L83.58,105.197L82.612,110.072L85.077,110.072C85.704,110.072 86.231,109.985 86.66,109.808C87.088,109.631 87.441,109.402 87.72,109.119C87.998,108.836 88.203,108.511 88.336,108.145C88.469,107.778 88.534,107.405 88.534,107.026ZM92.708,99.09C92.708,99.611 92.635,100.104 92.489,100.567C92.344,101.031 92.132,101.455 91.854,101.839C91.575,102.223 91.239,102.563 90.847,102.859C90.453,103.155 90.014,103.391 89.528,103.568C89.917,103.638 90.274,103.762 90.602,103.939C90.928,104.115 91.208,104.34 91.442,104.614C91.677,104.888 91.857,105.213 91.985,105.588C92.113,105.964 92.178,106.385 92.178,106.853C92.178,107.277 92.12,107.716 92.006,108.172C91.891,108.627 91.71,109.07 91.463,109.503C91.215,109.936 90.893,110.349 90.495,110.742C90.098,111.135 89.619,111.479 89.058,111.775C88.497,112.071 87.85,112.304 87.117,112.477C86.384,112.649 85.531,112.735 84.561,112.735L79.804,112.735C79.441,112.735 79.179,112.647 79.016,112.47C78.853,112.294 78.811,112.016 78.89,111.636L81.884,96.693C81.954,96.304 82.111,96.023 82.355,95.851C82.597,95.679 82.878,95.593 83.195,95.593L87.315,95.593C88.226,95.593 89.012,95.664 89.674,95.805C90.336,95.946 90.893,96.16 91.343,96.447C91.794,96.734 92.134,97.096 92.363,97.534C92.593,97.971 92.708,98.49 92.708,99.09Z" style="fill:white;fill-rule:nonzero;"/>
        <path d="M100.688,96.494C100.625,96.82 100.542,97.096 100.436,97.321C100.331,97.547 100.189,97.728 100.012,97.865C99.835,98.002 99.618,98.099 99.362,98.156C99.106,98.214 98.788,98.242 98.408,98.242C98.038,98.242 97.735,98.214 97.501,98.156C97.267,98.099 97.091,98.002 96.972,97.865C96.852,97.728 96.783,97.547 96.766,97.321C96.748,97.096 96.774,96.82 96.846,96.494C96.907,96.175 96.991,95.906 97.097,95.686C97.203,95.465 97.344,95.284 97.522,95.142C97.697,95.001 97.914,94.9 98.17,94.838C98.426,94.776 98.744,94.745 99.124,94.745C99.495,94.745 99.798,94.776 100.032,94.838C100.266,94.9 100.443,95.001 100.562,95.142C100.681,95.284 100.748,95.465 100.76,95.686C100.774,95.906 100.749,96.175 100.688,96.494ZM97.27,112.285C97.252,112.374 97.21,112.451 97.144,112.516C97.077,112.583 96.976,112.638 96.839,112.682C96.702,112.726 96.522,112.759 96.302,112.782C96.081,112.803 95.812,112.815 95.494,112.815C95.167,112.815 94.9,112.803 94.692,112.782C94.485,112.759 94.321,112.726 94.202,112.682C94.083,112.638 94.006,112.583 93.971,112.516C93.936,112.451 93.926,112.374 93.944,112.285L96.289,100.494C96.307,100.406 96.349,100.328 96.415,100.262C96.481,100.196 96.582,100.139 96.72,100.09C96.856,100.042 97.033,100.005 97.249,99.978C97.466,99.951 97.737,99.938 98.064,99.938C98.391,99.938 98.658,99.951 98.865,99.978C99.073,100.005 99.236,100.042 99.355,100.09C99.476,100.139 99.553,100.196 99.588,100.262C99.623,100.328 99.632,100.406 99.614,100.494L97.27,112.285Z" style="fill:white;fill-rule:nonzero;"/>
        <path d="M110.363,104.667C110.363,104.297 110.325,103.967 110.249,103.68C110.174,103.393 110.051,103.151 109.878,102.952C109.707,102.753 109.486,102.601 109.216,102.495C108.947,102.389 108.618,102.336 108.229,102.336C107.788,102.336 107.39,102.422 107.037,102.594C106.684,102.766 106.368,102.998 106.089,103.29C105.812,103.581 105.571,103.919 105.368,104.303C105.165,104.687 104.997,105.091 104.865,105.515C104.732,105.939 104.634,106.37 104.573,106.807C104.511,107.244 104.48,107.661 104.48,108.059C104.48,108.43 104.518,108.761 104.592,109.052C104.667,109.344 104.791,109.589 104.963,109.788C105.136,109.986 105.357,110.139 105.626,110.245C105.895,110.351 106.224,110.404 106.613,110.404C107.054,110.404 107.452,110.318 107.805,110.146C108.159,109.973 108.474,109.739 108.752,109.444C109.031,109.148 109.271,108.807 109.475,108.423C109.678,108.039 109.845,107.633 109.978,107.204C110.111,106.776 110.208,106.345 110.27,105.913C110.332,105.48 110.363,105.065 110.363,104.667ZM113.807,104.442C113.807,105.078 113.748,105.732 113.628,106.403C113.509,107.074 113.321,107.73 113.065,108.37C112.809,109.011 112.48,109.611 112.078,110.172C111.676,110.733 111.195,111.228 110.634,111.656C110.073,112.084 109.43,112.422 108.707,112.669C107.982,112.917 107.165,113.04 106.255,113.04C105.363,113.04 104.592,112.936 103.944,112.728C103.294,112.521 102.753,112.216 102.321,111.815C101.888,111.413 101.566,110.919 101.354,110.331C101.142,109.744 101.036,109.07 101.036,108.311C101.036,107.674 101.095,107.021 101.214,106.35C101.333,105.679 101.521,105.025 101.778,104.389C102.034,103.753 102.363,103.151 102.764,102.581C103.166,102.011 103.648,101.514 104.208,101.09C104.769,100.666 105.412,100.331 106.136,100.084C106.86,99.837 107.677,99.713 108.587,99.713C109.479,99.713 110.249,99.817 110.899,100.024C111.548,100.232 112.089,100.536 112.522,100.938C112.955,101.34 113.277,101.835 113.489,102.422C113.701,103.009 113.807,103.683 113.807,104.442Z" style="fill:white;fill-rule:nonzero;"/>
        <path d="M124.979,100.985C124.979,101.09 124.963,101.247 124.932,101.455C124.902,101.662 124.855,101.872 124.793,102.084C124.732,102.296 124.659,102.479 124.575,102.634C124.491,102.788 124.396,102.865 124.29,102.865C124.175,102.865 124.041,102.824 123.886,102.74C123.731,102.656 123.543,102.563 123.323,102.462C123.102,102.36 122.843,102.269 122.547,102.19C122.251,102.111 121.905,102.07 121.507,102.07C121.199,102.07 120.922,102.111 120.68,102.19C120.437,102.269 120.236,102.378 120.077,102.514C119.918,102.652 119.796,102.813 119.712,102.998C119.628,103.184 119.586,103.382 119.586,103.594C119.586,103.868 119.7,104.098 119.924,104.283C120.15,104.468 120.43,104.643 120.766,104.806C121.101,104.97 121.463,105.14 121.852,105.317C122.241,105.493 122.603,105.714 122.939,105.979C123.274,106.244 123.552,106.567 123.773,106.946C123.994,107.326 124.104,107.803 124.104,108.377C124.104,109.048 123.976,109.669 123.72,110.238C123.464,110.808 123.091,111.3 122.601,111.715C122.111,112.131 121.514,112.455 120.812,112.689C120.11,112.923 119.317,113.04 118.434,113.04C118.01,113.04 117.606,113.008 117.222,112.947C116.837,112.885 116.494,112.81 116.189,112.722C115.884,112.633 115.625,112.532 115.414,112.418C115.202,112.302 115.042,112.197 114.937,112.099C114.866,112.029 114.815,111.954 114.785,111.874C114.753,111.795 114.738,111.694 114.738,111.569C114.738,111.49 114.745,111.389 114.757,111.265C114.771,111.141 114.793,111.005 114.824,110.854C114.855,110.704 114.89,110.554 114.93,110.404C114.97,110.254 115.016,110.117 115.069,109.993C115.123,109.869 115.179,109.77 115.242,109.695C115.303,109.62 115.37,109.582 115.44,109.582C115.564,109.582 115.701,109.635 115.851,109.741C116,109.847 116.195,109.965 116.434,110.092C116.672,110.221 116.965,110.34 117.315,110.45C117.664,110.561 118.098,110.616 118.62,110.616C118.982,110.616 119.297,110.574 119.567,110.49C119.836,110.406 120.059,110.289 120.236,110.139C120.413,109.989 120.542,109.817 120.626,109.622C120.71,109.428 120.752,109.22 120.752,109C120.752,108.691 120.644,108.439 120.428,108.244C120.211,108.05 119.94,107.869 119.613,107.701C119.287,107.533 118.931,107.361 118.546,107.185C118.163,107.008 117.807,106.792 117.48,106.535C117.154,106.279 116.882,105.961 116.666,105.581C116.449,105.202 116.341,104.725 116.341,104.151C116.341,103.524 116.46,102.941 116.699,102.402C116.937,101.863 117.286,101.393 117.746,100.991C118.205,100.589 118.761,100.276 119.415,100.051C120.068,99.825 120.81,99.713 121.64,99.713C122.011,99.713 122.371,99.737 122.72,99.786C123.069,99.835 123.382,99.899 123.661,99.978C123.939,100.057 124.182,100.145 124.389,100.242C124.597,100.34 124.745,100.437 124.833,100.534C124.93,100.622 124.979,100.772 124.979,100.985Z" style="fill:white;fill-rule:nonzero;"/>
        <path d="M132.839,96.494C132.777,96.82 132.694,97.096 132.587,97.321C132.482,97.547 132.34,97.728 132.164,97.865C131.987,98.002 131.77,98.099 131.514,98.156C131.258,98.214 130.94,98.242 130.56,98.242C130.19,98.242 129.886,98.214 129.653,98.156C129.418,98.099 129.243,98.002 129.123,97.865C129.003,97.728 128.935,97.547 128.917,97.321C128.899,97.096 128.925,96.82 128.998,96.494C129.059,96.175 129.143,95.906 129.248,95.686C129.354,95.465 129.496,95.284 129.673,95.142C129.849,95.001 130.065,94.9 130.322,94.838C130.578,94.776 130.896,94.745 131.276,94.745C131.647,94.745 131.95,94.776 132.183,94.838C132.417,94.9 132.594,95.001 132.713,95.142C132.833,95.284 132.899,95.465 132.912,95.686C132.925,95.906 132.901,96.175 132.839,96.494ZM129.421,112.285C129.404,112.374 129.362,112.451 129.295,112.516C129.229,112.583 129.127,112.638 128.991,112.682C128.854,112.726 128.673,112.759 128.453,112.782C128.233,112.803 127.963,112.815 127.646,112.815C127.319,112.815 127.052,112.803 126.844,112.782C126.637,112.759 126.473,112.726 126.354,112.682C126.235,112.638 126.158,112.583 126.123,112.516C126.087,112.451 126.078,112.374 126.096,112.285L128.44,100.494C128.457,100.406 128.5,100.328 128.567,100.262C128.632,100.196 128.733,100.139 128.871,100.09C129.007,100.042 129.185,100.005 129.401,99.978C129.618,99.951 129.889,99.938 130.216,99.938C130.542,99.938 130.81,99.951 131.017,99.978C131.225,100.005 131.388,100.042 131.507,100.09C131.627,100.139 131.705,100.196 131.74,100.262C131.775,100.328 131.784,100.406 131.766,100.494L129.421,112.285Z" style="fill:white;fill-rule:nonzero;"/>
        <path d="M142.249,103.992C141.941,103.506 141.598,103.142 141.223,102.899C140.847,102.656 140.413,102.534 139.918,102.534C139.547,102.534 139.209,102.623 138.905,102.799C138.6,102.976 138.326,103.212 138.083,103.508C137.84,103.804 137.628,104.146 137.448,104.535C137.266,104.923 137.116,105.33 136.997,105.754C136.877,106.177 136.79,106.602 136.732,107.026C136.674,107.449 136.646,107.851 136.646,108.231C136.646,108.531 136.672,108.805 136.725,109.052C136.778,109.3 136.86,109.509 136.97,109.682C137.081,109.854 137.222,109.986 137.394,110.079C137.567,110.172 137.776,110.218 138.024,110.218C138.413,110.218 138.809,110.101 139.216,109.867C139.622,109.633 140.001,109.316 140.355,108.913C140.708,108.511 141.02,108.041 141.29,107.503C141.558,106.964 141.755,106.39 141.878,105.78L142.249,103.992ZM143.787,112.761C143.627,113.565 143.38,114.265 143.044,114.862C142.708,115.458 142.267,115.957 141.72,116.359C141.172,116.76 140.507,117.063 139.726,117.266C138.944,117.469 138.033,117.571 136.99,117.571C136.24,117.571 135.566,117.511 134.97,117.392C134.374,117.273 133.876,117.121 133.479,116.935C133.338,116.864 133.241,116.785 133.188,116.697C133.135,116.608 133.109,116.484 133.109,116.326C133.109,116.272 133.113,116.184 133.122,116.06C133.13,115.937 133.15,115.799 133.181,115.65C133.212,115.5 133.249,115.342 133.294,115.179C133.338,115.016 133.393,114.871 133.459,114.743C133.526,114.614 133.599,114.508 133.678,114.424C133.757,114.34 133.85,114.298 133.957,114.298C134.062,114.298 134.193,114.336 134.347,114.411C134.501,114.486 134.707,114.568 134.963,114.656C135.219,114.745 135.538,114.826 135.917,114.901C136.296,114.976 136.765,115.014 137.322,115.014C137.772,115.014 138.176,114.978 138.534,114.908C138.891,114.838 139.203,114.722 139.467,114.563C139.733,114.405 139.947,114.201 140.11,113.954C140.274,113.707 140.39,113.402 140.461,113.04C140.576,112.465 140.691,111.985 140.806,111.596C140.92,111.208 141.027,110.89 141.124,110.642C140.964,110.934 140.737,111.223 140.441,111.51C140.145,111.797 139.807,112.055 139.428,112.285C139.048,112.514 138.639,112.698 138.203,112.835C137.765,112.971 137.326,113.04 136.884,113.04C136.204,113.04 135.632,112.925 135.168,112.696C134.705,112.465 134.328,112.148 134.036,111.742C133.745,111.336 133.535,110.859 133.407,110.311C133.279,109.763 133.214,109.172 133.214,108.536C133.214,107.962 133.267,107.343 133.374,106.681C133.479,106.019 133.645,105.361 133.871,104.707C134.095,104.053 134.38,103.426 134.725,102.826C135.069,102.225 135.482,101.693 135.963,101.23C136.445,100.766 136.997,100.397 137.62,100.124C138.242,99.85 138.942,99.713 139.719,99.713C140.453,99.713 141.101,99.865 141.666,100.17C142.232,100.474 142.727,100.918 143.151,101.501L143.363,100.454C143.398,100.269 143.537,100.137 143.78,100.057C144.023,99.978 144.414,99.938 144.953,99.938C145.217,99.938 145.438,99.949 145.615,99.971C145.791,99.993 145.93,100.024 146.032,100.064C146.133,100.104 146.202,100.156 146.238,100.222C146.273,100.289 146.282,100.366 146.264,100.454L143.787,112.761Z" style="fill:white;fill-rule:nonzero;"/>
        <path d="M160.112,103.104C160.112,103.413 160.091,103.722 160.052,104.031C160.012,104.34 159.961,104.659 159.9,104.986L158.429,112.285C158.412,112.374 158.37,112.451 158.303,112.516C158.237,112.583 158.135,112.638 157.999,112.682C157.862,112.726 157.685,112.759 157.468,112.782C157.251,112.803 156.98,112.815 156.654,112.815C156.327,112.815 156.06,112.803 155.852,112.782C155.644,112.759 155.483,112.726 155.369,112.682C155.253,112.638 155.176,112.583 155.137,112.516C155.097,112.451 155.085,112.374 155.104,112.285L156.535,105.197C156.579,104.986 156.612,104.769 156.634,104.548C156.656,104.327 156.666,104.133 156.666,103.965C156.666,103.568 156.583,103.241 156.416,102.985C156.248,102.729 155.964,102.601 155.567,102.601C155.205,102.601 154.828,102.715 154.435,102.945C154.041,103.175 153.67,103.486 153.322,103.879C152.973,104.272 152.662,104.732 152.388,105.257C152.114,105.782 151.919,106.341 151.805,106.933L150.732,112.285C150.714,112.374 150.672,112.451 150.606,112.516C150.54,112.583 150.438,112.638 150.301,112.682C150.165,112.726 149.985,112.759 149.764,112.782C149.543,112.803 149.274,112.815 148.957,112.815C148.629,112.815 148.363,112.803 148.155,112.782C147.948,112.759 147.784,112.726 147.665,112.682C147.545,112.638 147.468,112.583 147.433,112.516C147.398,112.451 147.388,112.374 147.407,112.285L149.778,100.454C149.795,100.366 149.833,100.289 149.89,100.222C149.948,100.156 150.037,100.104 150.156,100.064C150.275,100.024 150.429,99.993 150.619,99.971C150.809,99.949 151.037,99.938 151.301,99.938C151.575,99.938 151.798,99.949 151.97,99.971C152.143,99.993 152.277,100.024 152.374,100.064C152.471,100.104 152.536,100.156 152.567,100.222C152.597,100.289 152.604,100.366 152.586,100.454L152.203,102.402C152.388,102.093 152.635,101.777 152.944,101.455C153.253,101.132 153.609,100.843 154.01,100.587C154.413,100.331 154.85,100.122 155.322,99.958C155.794,99.795 156.287,99.713 156.799,99.713C157.417,99.713 157.936,99.804 158.356,99.984C158.776,100.165 159.116,100.41 159.376,100.719C159.636,101.028 159.825,101.388 159.939,101.799C160.054,102.21 160.112,102.645 160.112,103.104Z" style="fill:white;fill-rule:nonzero;"/>
        <path d="M171.204,104.005C170.895,103.519 170.552,103.155 170.177,102.912C169.801,102.669 169.367,102.548 168.873,102.548C168.501,102.548 168.161,102.636 167.852,102.813C167.542,102.989 167.269,103.226 167.031,103.521C166.792,103.818 166.583,104.159 166.402,104.548C166.22,104.937 166.07,105.341 165.951,105.76C165.832,106.18 165.744,106.604 165.686,107.032C165.628,107.461 165.6,107.856 165.6,108.218C165.6,108.483 165.62,108.735 165.66,108.973C165.699,109.212 165.772,109.423 165.878,109.609C165.984,109.795 166.125,109.943 166.302,110.053C166.479,110.163 166.704,110.218 166.978,110.218C167.367,110.218 167.763,110.101 168.17,109.867C168.576,109.633 168.956,109.316 169.309,108.913C169.663,108.511 169.974,108.044 170.244,107.509C170.512,106.975 170.709,106.403 170.833,105.794L171.204,104.005ZM172.846,112.298C172.811,112.483 172.672,112.616 172.429,112.696C172.186,112.775 171.795,112.815 171.257,112.815C170.983,112.815 170.76,112.806 170.587,112.789C170.416,112.77 170.277,112.742 170.17,112.702C170.065,112.663 169.996,112.609 169.965,112.544C169.934,112.477 169.927,112.395 169.945,112.298L170.316,110.404C170.184,110.687 169.972,110.985 169.68,111.298C169.389,111.611 169.044,111.897 168.647,112.152C168.249,112.409 167.81,112.621 167.329,112.789C166.847,112.956 166.35,113.04 165.838,113.04C165.131,113.04 164.544,112.917 164.077,112.669C163.608,112.422 163.233,112.089 162.951,111.669C162.667,111.25 162.466,110.771 162.347,110.232C162.228,109.693 162.168,109.128 162.168,108.536C162.168,107.979 162.221,107.372 162.328,106.714C162.433,106.056 162.597,105.401 162.818,104.747C163.039,104.093 163.321,103.464 163.666,102.859C164.01,102.254 164.422,101.717 164.905,101.249C165.385,100.781 165.938,100.408 166.56,100.13C167.183,99.852 167.887,99.713 168.673,99.713C169.407,99.713 170.055,99.865 170.621,100.17C171.186,100.474 171.681,100.918 172.105,101.501L172.317,100.454C172.352,100.269 172.491,100.137 172.734,100.057C172.977,99.978 173.368,99.938 173.907,99.938C174.171,99.938 174.392,99.949 174.569,99.971C174.746,99.993 174.884,100.024 174.986,100.064C175.087,100.104 175.156,100.156 175.192,100.222C175.227,100.289 175.236,100.366 175.218,100.454L172.846,112.298Z" style="fill:white;fill-rule:nonzero;"/>
        <path d="M179.687,112.285C179.669,112.374 179.627,112.451 179.561,112.516C179.495,112.583 179.395,112.638 179.263,112.682C179.13,112.726 178.954,112.759 178.733,112.782C178.512,112.803 178.243,112.815 177.924,112.815C177.589,112.815 177.318,112.803 177.11,112.782C176.903,112.759 176.741,112.726 176.626,112.682C176.511,112.638 176.434,112.583 176.395,112.516C176.355,112.451 176.343,112.374 176.362,112.285L179.846,94.864C179.864,94.776 179.903,94.696 179.965,94.626C180.027,94.555 180.128,94.495 180.27,94.447C180.411,94.399 180.589,94.36 180.806,94.334C181.023,94.308 181.294,94.295 181.621,94.295C181.948,94.295 182.215,94.308 182.422,94.334C182.63,94.36 182.791,94.399 182.906,94.447C183.021,94.495 183.096,94.555 183.131,94.626C183.166,94.696 183.175,94.776 183.158,94.864L179.687,112.285Z" style="fill:white;fill-rule:nonzero;"/>
        <path d="M192.926,100.985C192.926,101.09 192.911,101.247 192.879,101.455C192.849,101.662 192.802,101.872 192.741,102.084C192.679,102.296 192.606,102.479 192.522,102.634C192.438,102.788 192.343,102.865 192.237,102.865C192.123,102.865 191.988,102.824 191.833,102.74C191.678,102.656 191.491,102.563 191.27,102.462C191.049,102.36 190.791,102.269 190.495,102.19C190.199,102.111 189.852,102.07 189.455,102.07C189.146,102.07 188.87,102.111 188.627,102.19C188.384,102.269 188.183,102.378 188.024,102.514C187.866,102.652 187.744,102.813 187.66,102.998C187.576,103.184 187.534,103.382 187.534,103.594C187.534,103.868 187.647,104.098 187.872,104.283C188.097,104.468 188.377,104.643 188.713,104.806C189.048,104.97 189.411,105.14 189.799,105.317C190.188,105.493 190.55,105.714 190.886,105.979C191.221,106.244 191.499,106.567 191.72,106.946C191.941,107.326 192.051,107.803 192.051,108.377C192.051,109.048 191.923,109.669 191.667,110.238C191.412,110.808 191.039,111.3 190.548,111.715C190.058,112.131 189.461,112.455 188.759,112.689C188.057,112.923 187.264,113.04 186.381,113.04C185.958,113.04 185.553,113.008 185.169,112.947C184.785,112.885 184.441,112.81 184.136,112.722C183.832,112.633 183.573,112.532 183.361,112.418C183.149,112.302 182.99,112.197 182.884,112.099C182.813,112.029 182.762,111.954 182.732,111.874C182.701,111.795 182.685,111.694 182.685,111.569C182.685,111.49 182.692,111.389 182.705,111.265C182.718,111.141 182.741,111.005 182.771,110.854C182.802,110.704 182.837,110.554 182.877,110.404C182.917,110.254 182.963,110.117 183.016,109.993C183.07,109.869 183.126,109.77 183.189,109.695C183.25,109.62 183.317,109.582 183.387,109.582C183.511,109.582 183.648,109.635 183.798,109.741C183.948,109.847 184.142,109.965 184.381,110.092C184.62,110.221 184.913,110.34 185.262,110.45C185.611,110.561 186.045,110.616 186.567,110.616C186.929,110.616 187.245,110.574 187.514,110.49C187.784,110.406 188.006,110.289 188.183,110.139C188.36,109.989 188.49,109.817 188.574,109.622C188.658,109.428 188.7,109.22 188.7,109C188.7,108.691 188.591,108.439 188.375,108.244C188.159,108.05 187.887,107.869 187.56,107.701C187.234,107.533 186.878,107.361 186.494,107.185C186.11,107.008 185.754,106.792 185.427,106.535C185.101,106.279 184.83,105.961 184.613,105.581C184.396,105.202 184.289,104.725 184.289,104.151C184.289,103.524 184.408,102.941 184.646,102.402C184.884,101.863 185.233,101.393 185.693,100.991C186.152,100.589 186.708,100.276 187.362,100.051C188.015,99.825 188.757,99.713 189.587,99.713C189.958,99.713 190.318,99.737 190.667,99.786C191.016,99.835 191.33,99.899 191.608,99.978C191.886,100.057 192.129,100.145 192.336,100.242C192.544,100.34 192.692,100.437 192.781,100.534C192.877,100.622 192.926,100.772 192.926,100.985Z" style="fill:white;fill-rule:nonzero;"/>
    </g>
</svg>
