<?xml version="1.0" encoding="UTF-8" standalone="no"?>
<!DOCTYPE svg PUBLIC "-//W3C//DTD SVG 1.1//EN" "http://www.w3.org/Graphics/SVG/1.1/DTD/svg11.dtd">
<svg width="100%" height="100%" viewBox="0 0 800 800" version="1.1" xmlns="http://www.w3.org/2000/svg" xmlns:xlink="http://www.w3.org/1999/xlink" xml:space="preserve" xmlns:serif="http://www.serif.com/" style="fill-rule:evenodd;clip-rule:evenodd;stroke-linejoin:round;stroke-miterlimit:2;">
    <g transform="matrix(1.61796,0,0,1.61796,0,0)">
        <path d="M305.524,119.254C214.362,100.367 115.726,126.224 45.125,196.825C34.825,207.125 18.025,207.125 7.725,196.825C-2.575,186.525 -2.575,169.725 7.725,159.425C71.725,95.425 156.725,60.225 247.225,60.225C282.298,60.225 316.546,65.512 349.065,75.713L305.524,119.254ZM419.021,106.853C443.416,121.26 466.155,138.855 486.725,159.425C497.025,169.725 497.025,186.525 486.725,196.825C481.425,202.025 474.625,204.625 467.925,204.625C461.125,204.625 454.425,202.025 449.225,196.825C428.298,175.917 404.916,158.933 380.001,145.873L419.021,106.853ZM342.652,183.222C368.525,194.649 392.75,210.95 413.925,232.125C424.225,242.425 424.225,259.225 413.925,269.525C408.725,274.725 401.925,277.325 395.225,277.325C388.425,277.325 381.725,274.725 376.525,269.525C354.831,247.861 329.02,232.78 301.593,224.281L342.652,183.222ZM260.954,264.921C291.718,268.034 320.206,281.519 342.325,303.725C352.625,314.025 352.625,330.825 342.325,341.125C337.225,346.225 330.425,348.825 323.625,348.825C316.825,348.825 310.125,346.225 304.925,341.025C289.525,325.625 268.925,317.125 247.125,317.125C225.325,317.125 204.725,325.625 189.325,341.025C186.125,344.225 182.297,346.431 178.231,347.643L260.954,264.921ZM203.494,221.284C172.051,228.948 142.256,245.029 117.725,269.525C107.425,279.825 90.625,279.825 80.325,269.525C70.025,259.225 70.025,242.425 80.325,232.125C129.909,182.541 196.223,159.681 261.234,163.544L203.494,221.284ZM247.125,363.625C266.608,363.625 282.425,379.442 282.425,398.925C282.425,418.408 266.608,434.225 247.125,434.225C227.642,434.225 211.825,418.408 211.825,398.925C211.825,379.442 227.642,363.625 247.125,363.625Z"/>
        <g transform="matrix(0.437036,-0.437036,0.379062,0.379062,-21.6585,267.917)">
            <path d="M768.061,253.35C775.24,253.35 782.124,256.637 787.2,262.49C792.276,268.342 795.128,276.28 795.128,284.556L795.128,317.636C795.128,325.913 792.276,333.85 787.2,339.703C782.124,345.555 775.24,348.843 768.061,348.843L-27.501,348.843C-34.679,348.843 -41.564,345.555 -46.64,339.703C-51.716,333.85 -54.568,325.913 -54.568,317.636L-54.568,284.556C-54.568,276.28 -51.716,268.342 -46.64,262.49C-41.564,256.637 -34.679,253.35 -27.501,253.35L768.061,253.35Z"/>
        </g>
    </g>
</svg>
